# xmcd
#
# Track frame offsets:
#	150
#	12504
#	24489
#	34419
#	45553
#	57174
#	74489
#	91427
#	106128
#	117276
#	134114
#	148871
#	162451
#	172486
#	184645
#	197626
#	208060
#	224255
#	237493
#	251333
#
# Disc length: 3568 seconds
#
# Revision: 2
# Processed by: cddbd v1.5.1PL0 Copyright (c) Steve Scherf et al.
# Submitted via: EasyCDDAExtractor 6.2.0.3
#
DISCID=380dee14
DTITLE=Various Artist - Acuff-Rose Greatest Hits - Volume 3
DYEAR=2002
DGENRE=Various
TTITLE0=Williams, Hank - Cold Cold Heart
TTITLE1=Bennett, Tony - Cold Cold Heart
TTITLE2=Hall, Tom T. - Country Is
TTITLE3=Williams, Hank - Crazy Heart
TTITLE4=Newman, Jimmy C. - Cry Cry Darling
TTITLE5=McClean, Don - Crying
TTITLE6=Orbison, Roy and K. D. Lang - Crying
TTITLE7=Brown, T. Graham - Darlene
TTITLE8=Shenandoah - Darned If I Do And Danged If I Don't
TTITLE9=Morgan, Lorrie - Dear Me
TTITLE10=Strait, George - Does Fort Worth Ever Cross Your Mind
TTITLE11=Jackson, Stonewall - Don't Be Angry
TTITLE12=Gary Puckett and The Union Gap - Don't Give In To Him
TTITLE13=Como, Perry - Don't Let The Stars Get In Your Eyes
TTITLE14=Jackson, Alan - Don't Rock the Jukebox
TTITLE15=Don Gibson - Don't Tell Me Your Troubles
TTITLE16=Strait, George - Drinking Champagne
TTITLE17=Strait, George - Easy Come Easy Go
TTITLE18=Everly Brothers - Ebony Eyes
TTITLE19=Oak Ridge Boys - Elvira
EXTD=
EXTT0=
EXTT1=
EXTT2=
EXTT3=
EXTT4=
EXTT5=
EXTT6=
EXTT7=
EXTT8=
EXTT9=
EXTT10=
EXTT11=
EXTT12=
EXTT13=
EXTT14=
EXTT15=
EXTT16=
EXTT17=
EXTT18=
EXTT19=
PLAYORDER=
